name rise32.9588peak41.5061fall63.4684.mot
datacolumns 19
datarows 18
range 19.94159000000000 19.96992900000000
endheader
time	ground_force1_vx	ground_force1_vy	ground_force1_vz	ground_force1_px	ground_force1_py	ground_force1_pz	ground_force2_vx	ground_force2_vy	ground_force2_vz	ground_force2_px	ground_force2_py	ground_force2_pz	ground_torque1_x	ground_torque1_y	ground_torque1_z	ground_torque2_x	ground_torque2_y	ground_torque2_z	
19.94159000000000	-47.28535600000000	805.18652099999997	50.40350200000000	0.06915000000000	0.00000000000000	0.12173000000000	0.00000000000000	0.00000000000000	0.00000000000000	0.00000000000000	0.00000000000000	0.00000000000000	0.00000000000000	17.51835700000000	0.00000000000000	0.00000000000000	0.00000000000000	0.00000000000000	
19.94326000000000	-47.50180900000000	802.70655299999999	50.17194200000000	0.06851400000000	0.00000000000000	0.12168600000000	0.00000000000000	0.00000000000000	0.00000000000000	0.00000000000000	0.00000000000000	0.00000000000000	0.00000000000000	17.45767600000000	0.00000000000000	0.00000000000000	0.00000000000000	0.00000000000000	
19.94492200000000	-47.72555800000000	800.11998800000003	49.93125100000000	0.06787900000000	0.00000000000000	0.12164000000000	0.00000000000000	0.00000000000000	0.00000000000000	0.00000000000000	0.00000000000000	0.00000000000000	0.00000000000000	17.39849700000000	0.00000000000000	0.00000000000000	0.00000000000000	0.00000000000000	
19.94659400000000	-47.95729700000000	797.42690600000003	49.68133500000000	0.06724500000000	0.00000000000000	0.12159400000000	0.00000000000000	0.00000000000000	0.00000000000000	0.00000000000000	0.00000000000000	0.00000000000000	0.00000000000000	17.34096900000000	0.00000000000000	0.00000000000000	0.00000000000000	0.00000000000000	
19.94825700000000	-48.19768400000000	794.62737200000004	49.42209400000000	0.06661100000000	0.00000000000000	0.12154600000000	-1.21112700000000	3.68936100000000	1.05753200000000	0.00000000000000	0.00000000000000	0.00000000000000	0.00000000000000	17.28523500000000	0.00000000000000	0.00000000000000	0.31604800000000	0.00000000000000	
19.94992400000000	-48.44733700000000	791.72141899999997	49.15342300000000	0.06597700000000	0.00000000000000	0.12149800000000	-1.89989900000000	7.31161800000000	1.80986100000000	0.00000000000000	0.00000000000000	0.00000000000000	0.00000000000000	17.23142500000000	0.00000000000000	0.00000000000000	0.55383400000000	0.00000000000000	
19.95159900000000	-48.70682600000000	788.70905300000004	48.87521000000000	0.06534300000000	0.00000000000000	0.12144700000000	-2.67056300000000	11.71672900000000	2.68558000000000	0.00000000000000	0.00000000000000	0.00000000000000	0.00000000000000	17.17965900000000	0.00000000000000	0.00000000000000	0.83293600000000	0.00000000000000	
19.95326500000000	-48.97667300000000	785.59023800000000	48.58733800000000	0.06470900000000	0.00000000000000	0.12139600000000	-3.49714200000000	16.86610700000000	3.66548300000000	0.00000000000000	0.00000000000000	0.00000000000000	0.00000000000000	17.13004500000000	0.00000000000000	0.00000000000000	1.14790800000000	0.00000000000000	
19.95492400000000	-49.25734200000000	782.36489500000005	48.28968600000000	0.06407300000000	0.00000000000000	0.12134300000000	-4.34780800000000	22.68763100000000	4.72357100000000	0.00000000000000	0.00000000000000	0.00000000000000	0.00000000000000	17.08267800000000	0.00000000000000	0.00000000000000	1.49113100000000	0.00000000000000	
19.95659100000000	-49.54923900000000	779.03289900000004	47.98212400000000	0.06343600000000	0.00000000000000	0.12128800000000	-5.18694200000000	29.08122600000000	5.82877800000000	0.29173500000000	0.00000000000000	-0.04836100000000	0.00000000000000	17.03764000000000	0.00000000000000	0.00000000000000	3.30293200000000	0.00000000000000	
19.95825900000000	-49.85270500000000	775.59406999999999	47.66452100000000	0.06279800000000	0.00000000000000	0.12123100000000	-5.97767500000000	35.92743600000000	6.94727400000000	0.29777100000000	0.00000000000000	-0.04909500000000	0.00000000000000	16.99500200000000	0.00000000000000	0.00000000000000	3.99943900000000	0.00000000000000	
19.95992400000000	-50.16801300000000	772.04817500000001	47.33673800000000	0.06215700000000	0.00000000000000	0.12117300000000	-6.68461400000000	43.09785600000000	8.04506100000000	0.30301900000000	0.00000000000000	-0.04976200000000	0.00000000000000	16.95481600000000	0.00000000000000	0.00000000000000	4.69856500000000	0.00000000000000	
19.96159500000000	-50.49536400000000	768.39492199999995	46.99863400000000	0.06151500000000	0.00000000000000	0.12111300000000	-7.27636600000000	50.46591300000000	9.09049500000000	0.30761300000000	0.00000000000000	-0.05037500000000	0.00000000000000	16.91712300000000	0.00000000000000	0.00000000000000	5.38085700000000	0.00000000000000	
19.96326300000000	-50.83488100000000	764.63395800000001	46.65006400000000	0.06087100000000	0.00000000000000	0.12105000000000	-7.72754200000000	57.91657900000000	10.05641500000000	0.31165800000000	0.00000000000000	-0.05094200000000	0.00000000000000	16.88194600000000	0.00000000000000	0.00000000000000	6.02912600000000	0.00000000000000	
19.96492500000000	-51.18660900000000	760.76486799999998	46.29088000000000	0.06022500000000	0.00000000000000	0.12098600000000	-8.02006500000000	65.35394800000000	10.92165900000000	0.31523800000000	0.00000000000000	-0.05147000000000	0.00000000000000	16.84929400000000	0.00000000000000	0.00000000000000	6.62946500000000	0.00000000000000	
19.96659600000000	-51.55050700000000	756.78717600000004	45.92093200000000	0.05957600000000	0.00000000000000	0.12091900000000	-8.14369200000000	72.70616900000000	11.67188000000000	0.31842100000000	0.00000000000000	-0.05196500000000	0.00000000000000	16.81915800000000	0.00000000000000	0.00000000000000	7.17185200000000	0.00000000000000	
19.96826000000000	-51.92645000000000	752.70034299999998	45.54006900000000	0.05892500000000	0.00000000000000	0.12085000000000	-8.09583400000000	79.92761200000000	12.29968000000000	0.32126300000000	0.00000000000000	-0.05243200000000	0.00000000000000	16.79151300000000	0.00000000000000	0.00000000000000	7.65034200000000	0.00000000000000	
19.96992900000000	-52.31422000000000	748.50376700000004	45.14814000000000	0.05827200000000	0.00000000000000	0.12077900000000	-7.88077000000000	86.99852199999999	12.80415800000000	0.32381100000000	0.00000000000000	-0.05287500000000	0.00000000000000	16.76631600000000	0.00000000000000	0.00000000000000	8.06289800000000	0.00000000000000	
